{
	"asset":{
		"generator":"Khronos glTF Blender I/O v4.3.47",
		"version":"2.0"
	},
	"extensionsUsed":[
		"KHR_texture_transform"
	],
	"extensionsRequired":[
		"KHR_texture_transform"
	],
	"scene":0,
	"scenes":[
		{
			"name":"Scene",
			"nodes":[
				0,
				1,
				2,
				3,
				4,
				5,
				6,
				7,
				8,
				9,
				10,
				11
			]
		}
	],
	"nodes":[
		{
			"mesh":0,
			"name":"Cube",
			"translation":[
				-0.12785431742668152,
				0.21649087965488434,
				0
			]
		},
		{
			"mesh":1,
			"name":"Cube.001",
			"rotation":[
				0.7071068286895752,
				0,
				0,
				0.7071068286895752
			],
			"scale":[
				1,
				1,
				0.7116819024085999
			],
			"translation":[
				-0.12785431742668152,
				0.6865226626396179,
				0.2773708701133728
			]
		},
		{
			"mesh":2,
			"name":"Cube.002",
			"rotation":[
				0,
				0,
				-0.7071068286895752,
				0.7071068286895752
			],
			"scale":[
				0.24585720896720886,
				0.5847474336624146,
				1
			],
			"translation":[
				0.9620994329452515,
				0.5706843137741089,
				0
			]
		},
		{
			"mesh":3,
			"name":"Cube.003",
			"translation":[
				0.6258385181427002,
				0.582120954990387,
				-0.1789689064025879
			]
		},
		{
			"mesh":4,
			"name":"Cube.004",
			"translation":[
				-0.14730320870876312,
				0.582120954990387,
				-0.18015062808990479
			]
		},
		{
			"mesh":5,
			"name":"Cube.005",
			"translation":[
				-0.8951700925827026,
				0.582120954990387,
				-0.18518567085266113
			]
		},
		{
			"mesh":6,
			"name":"Cube.006",
			"rotation":[
				0.7071068286895752,
				0,
				0,
				0.7071068286895752
			],
			"translation":[
				0.6258385181427002,
				0.8425502777099609,
				0.28585779666900635
			]
		},
		{
			"mesh":7,
			"name":"Cube.007",
			"rotation":[
				0.7071068286895752,
				0,
				0,
				0.7071068286895752
			],
			"translation":[
				-0.13376596570014954,
				0.8425502777099609,
				0.28585779666900635
			]
		},
		{
			"mesh":8,
			"name":"Cube.008",
			"rotation":[
				0.7071068286895752,
				0,
				0,
				0.7071068286895752
			],
			"translation":[
				-0.9060306549072266,
				0.8425502777099609,
				0.28585779666900635
			]
		},
		{
			"mesh":9,
			"name":"Cube.009",
			"rotation":[
				0,
				0.7071068286895752,
				0,
				0.7071068286895752
			],
			"translation":[
				1.076002597808838,
				0.2384452223777771,
				-0.4922594726085663
			]
		},
		{
			"mesh":10,
			"name":"Cube.010",
			"rotation":[
				0.17441579699516296,
				0.39390528202056885,
				-0.07969515770673752,
				0.8989253044128418
			],
			"scale":[
				0.20681650936603546,
				0.20681649446487427,
				0.032390426844358444
			],
			"translation":[
				0.8580116033554077,
				0.8451950550079346,
				0.017601456493139267
			]
		},
		{
			"mesh":11,
			"name":"Cube.011",
			"rotation":[
				-0.898925244808197,
				-0.07969512790441513,
				-0.3939051628112793,
				0.17441575229167938
			],
			"scale":[
				-0.20681650936603546,
				-0.20681650936603546,
				-0.032390426844358444
			],
			"translation":[
				-1.0959410667419434,
				0.8451950550079346,
				0.017601456493139267
			]
		}
	],
	"materials":[
		{
			"doubleSided":true,
			"name":"Brown Fabric",
			"normalTexture":{
				"extensions":{
					"KHR_texture_transform":{
						"offset":[
							0,
							-2
						],
						"scale":[
							3,
							3
						]
					}
				},
				"index":0,
				"texCoord":1
			},
			"pbrMetallicRoughness":{
				"baseColorTexture":{
					"extensions":{
						"KHR_texture_transform":{
							"offset":[
								0,
								-2
							],
							"scale":[
								3,
								3
							]
						}
					},
					"index":1,
					"texCoord":1
				},
				"metallicFactor":0,
				"metallicRoughnessTexture":{
					"extensions":{
						"KHR_texture_transform":{
							"offset":[
								0,
								-2
							],
							"scale":[
								3,
								3
							]
						}
					},
					"index":2,
					"texCoord":1
				}
			}
		},
		{
			"doubleSided":true,
			"name":"Brown Fabric",
			"normalTexture":{
				"extensions":{
					"KHR_texture_transform":{
						"offset":[
							0,
							-2
						],
						"scale":[
							3,
							3
						]
					}
				},
				"index":0
			},
			"pbrMetallicRoughness":{
				"baseColorTexture":{
					"extensions":{
						"KHR_texture_transform":{
							"offset":[
								0,
								-2
							],
							"scale":[
								3,
								3
							]
						}
					},
					"index":1
				},
				"metallicFactor":0,
				"metallicRoughnessTexture":{
					"extensions":{
						"KHR_texture_transform":{
							"offset":[
								0,
								-2
							],
							"scale":[
								3,
								3
							]
						}
					},
					"index":2
				}
			}
		},
		{
			"doubleSided":true,
			"name":"Old fashined black and white tiles",
			"normalTexture":{
				"index":3,
				"texCoord":1
			},
			"pbrMetallicRoughness":{
				"baseColorTexture":{
					"index":4,
					"texCoord":1
				},
				"metallicFactor":0,
				"metallicRoughnessTexture":{
					"index":5,
					"texCoord":1
				}
			}
		}
	],
	"meshes":[
		{
			"name":"Cube.001",
			"primitives":[
				{
					"attributes":{
						"POSITION":0,
						"NORMAL":1,
						"TEXCOORD_0":2,
						"TEXCOORD_1":3
					},
					"indices":4,
					"material":0
				}
			]
		},
		{
			"name":"Cube.002",
			"primitives":[
				{
					"attributes":{
						"POSITION":5,
						"NORMAL":6,
						"TEXCOORD_0":7
					},
					"indices":8,
					"material":1
				}
			]
		},
		{
			"name":"Cube.003",
			"primitives":[
				{
					"attributes":{
						"POSITION":9,
						"NORMAL":10,
						"TEXCOORD_0":11,
						"TEXCOORD_1":12
					},
					"indices":13,
					"material":0
				}
			]
		},
		{
			"name":"Cube.004",
			"primitives":[
				{
					"attributes":{
						"POSITION":14,
						"NORMAL":15,
						"TEXCOORD_0":16,
						"TEXCOORD_1":17
					},
					"indices":18,
					"material":0
				}
			]
		},
		{
			"name":"Cube.005",
			"primitives":[
				{
					"attributes":{
						"POSITION":19,
						"NORMAL":20,
						"TEXCOORD_0":21,
						"TEXCOORD_1":22
					},
					"indices":23,
					"material":0
				}
			]
		},
		{
			"name":"Cube.006",
			"primitives":[
				{
					"attributes":{
						"POSITION":24,
						"NORMAL":25,
						"TEXCOORD_0":26,
						"TEXCOORD_1":27
					},
					"indices":28,
					"material":0
				}
			]
		},
		{
			"name":"Cube.007",
			"primitives":[
				{
					"attributes":{
						"POSITION":29,
						"NORMAL":30,
						"TEXCOORD_0":31,
						"TEXCOORD_1":32
					},
					"indices":33,
					"material":0
				}
			]
		},
		{
			"name":"Cube.008",
			"primitives":[
				{
					"attributes":{
						"POSITION":34,
						"NORMAL":35,
						"TEXCOORD_0":36,
						"TEXCOORD_1":37
					},
					"indices":38,
					"material":0
				}
			]
		},
		{
			"name":"Cube.009",
			"primitives":[
				{
					"attributes":{
						"POSITION":39,
						"NORMAL":40,
						"TEXCOORD_0":41,
						"TEXCOORD_1":42
					},
					"indices":43,
					"material":0
				}
			]
		},
		{
			"name":"Cube.010",
			"primitives":[
				{
					"attributes":{
						"POSITION":44,
						"NORMAL":45,
						"TEXCOORD_0":46,
						"TEXCOORD_1":47
					},
					"indices":48,
					"material":0
				}
			]
		},
		{
			"name":"Cube.011",
			"primitives":[
				{
					"attributes":{
						"POSITION":49,
						"NORMAL":50,
						"TEXCOORD_0":51,
						"TEXCOORD_1":52
					},
					"indices":53,
					"material":2
				}
			]
		},
		{
			"name":"Cube.012",
			"primitives":[
				{
					"attributes":{
						"POSITION":54,
						"NORMAL":55,
						"TEXCOORD_0":56,
						"TEXCOORD_1":57
					},
					"indices":53,
					"material":2
				}
			]
		}
	],
	"textures":[
		{
			"sampler":0,
			"source":0
		},
		{
			"sampler":0,
			"source":1
		},
		{
			"sampler":0,
			"source":2
		},
		{
			"sampler":0,
			"source":3
		},
		{
			"sampler":0,
			"source":4
		},
		{
			"sampler":0,
			"source":5
		}
	],
	"images":[
		{
			"mimeType":"image/jpeg",
			"name":"Fabric_Normal",
			"uri":"Fabric_Normal.jpg"
		},
		{
			"mimeType":"image/jpeg",
			"name":"Frabric_BaseColor",
			"uri":"Frabric_BaseColor.jpg"
		},
		{
			"mimeType":"image/png",
			"name":"Frabric_Roughness",
			"uri":"Frabric_Roughness.png"
		},
		{
			"mimeType":"image/jpeg",
			"name":"Old_fashined_black_and_white_tiles_Normal",
			"uri":"Old_fashined_black_and_white_tiles_Normal.jpg"
		},
		{
			"mimeType":"image/jpeg",
			"name":"Old_fashined_black_and_white_tiles_Base_Color",
			"uri":"Old_fashined_black_and_white_tiles_Base_Color.jpg"
		},
		{
			"mimeType":"image/png",
			"name":"Old_fashined_black_and_white_tiles_Roughness",
			"uri":"Old_fashined_black_and_white_tiles_Roughness.png"
		}
	],
	"accessors":[
		{
			"bufferView":0,
			"componentType":5126,
			"count":5975,
			"max":[
				1.1841553449630737,
				0.33171796798706055,
				0.5863901376724243
			],
			"min":[
				-1.1841567754745483,
				0.021696709096431732,
				-0.5863913893699646
			],
			"type":"VEC3"
		},
		{
			"bufferView":1,
			"componentType":5126,
			"count":5975,
			"type":"VEC3"
		},
		{
			"bufferView":2,
			"componentType":5126,
			"count":5975,
			"type":"VEC2"
		},
		{
			"bufferView":3,
			"componentType":5126,
			"count":5975,
			"type":"VEC2"
		},
		{
			"bufferView":4,
			"componentType":5123,
			"count":31872,
			"type":"SCALAR"
		},
		{
			"bufferView":5,
			"componentType":5126,
			"count":5706,
			"max":[
				1.1841553449630737,
				0.33171796798706055,
				0.5863901376724243
			],
			"min":[
				-1.1841567754745483,
				0.021696709096431732,
				-0.5863913893699646
			],
			"type":"VEC3"
		},
		{
			"bufferView":6,
			"componentType":5126,
			"count":5706,
			"type":"VEC3"
		},
		{
			"bufferView":7,
			"componentType":5126,
			"count":5706,
			"type":"VEC2"
		},
		{
			"bufferView":8,
			"componentType":5123,
			"count":31872,
			"type":"SCALAR"
		},
		{
			"bufferView":9,
			"componentType":5126,
			"count":5975,
			"max":[
				1.1841553449630737,
				0.33171796798706055,
				0.5863901376724243
			],
			"min":[
				-1.1841567754745483,
				0.021696709096431732,
				-0.5863913893699646
			],
			"type":"VEC3"
		},
		{
			"bufferView":10,
			"componentType":5126,
			"count":5975,
			"type":"VEC3"
		},
		{
			"bufferView":11,
			"componentType":5126,
			"count":5975,
			"type":"VEC2"
		},
		{
			"bufferView":12,
			"componentType":5126,
			"count":5975,
			"type":"VEC2"
		},
		{
			"bufferView":13,
			"componentType":5123,
			"count":31872,
			"type":"SCALAR"
		},
		{
			"bufferView":14,
			"componentType":5126,
			"count":8099,
			"max":[
				0.393329381942749,
				0.109644815325737,
				0.3862857520580292
			],
			"min":[
				-0.3933766484260559,
				-0.09713611006736755,
				-0.38623377680778503
			],
			"type":"VEC3"
		},
		{
			"bufferView":15,
			"componentType":5126,
			"count":8099,
			"type":"VEC3"
		},
		{
			"bufferView":16,
			"componentType":5126,
			"count":8099,
			"type":"VEC2"
		},
		{
			"bufferView":17,
			"componentType":5126,
			"count":8099,
			"type":"VEC2"
		},
		{
			"bufferView":18,
			"componentType":5123,
			"count":43008,
			"type":"SCALAR"
		},
		{
			"bufferView":19,
			"componentType":5126,
			"count":8130,
			"max":[
				0.3934043049812317,
				0.10695774108171463,
				0.3798171579837799
			],
			"min":[
				-0.39330363273620605,
				-0.09713611006736755,
				-0.37975969910621643
			],
			"type":"VEC3"
		},
		{
			"bufferView":20,
			"componentType":5126,
			"count":8130,
			"type":"VEC3"
		},
		{
			"bufferView":21,
			"componentType":5126,
			"count":8130,
			"type":"VEC2"
		},
		{
			"bufferView":22,
			"componentType":5126,
			"count":8130,
			"type":"VEC2"
		},
		{
			"bufferView":23,
			"componentType":5123,
			"count":43008,
			"type":"SCALAR"
		},
		{
			"bufferView":24,
			"componentType":5126,
			"count":8187,
			"max":[
				0.35839253664016724,
				0.11371114104986191,
				0.3820939362049103
			],
			"min":[
				-0.3588670790195465,
				-0.09713611006736755,
				-0.3824352025985718
			],
			"type":"VEC3"
		},
		{
			"bufferView":25,
			"componentType":5126,
			"count":8187,
			"type":"VEC3"
		},
		{
			"bufferView":26,
			"componentType":5126,
			"count":8187,
			"type":"VEC2"
		},
		{
			"bufferView":27,
			"componentType":5126,
			"count":8187,
			"type":"VEC2"
		},
		{
			"bufferView":28,
			"componentType":5123,
			"count":43008,
			"type":"SCALAR"
		},
		{
			"bufferView":29,
			"componentType":5126,
			"count":8050,
			"max":[
				0.3934951722621918,
				0.09713596105575562,
				0.3477025032043457
			],
			"min":[
				-0.39365312457084656,
				-0.10491447895765305,
				-0.3473992347717285
			],
			"type":"VEC3"
		},
		{
			"bufferView":30,
			"componentType":5126,
			"count":8050,
			"type":"VEC3"
		},
		{
			"bufferView":31,
			"componentType":5126,
			"count":8050,
			"type":"VEC2"
		},
		{
			"bufferView":32,
			"componentType":5126,
			"count":8050,
			"type":"VEC2"
		},
		{
			"bufferView":33,
			"componentType":5123,
			"count":43008,
			"type":"SCALAR"
		},
		{
			"bufferView":34,
			"componentType":5126,
			"count":8140,
			"max":[
				0.3935641646385193,
				0.0971360057592392,
				0.34804391860961914
			],
			"min":[
				-0.39333823323249817,
				-0.11198356002569199,
				-0.3475475013256073
			],
			"type":"VEC3"
		},
		{
			"bufferView":35,
			"componentType":5126,
			"count":8140,
			"type":"VEC3"
		},
		{
			"bufferView":36,
			"componentType":5126,
			"count":8140,
			"type":"VEC2"
		},
		{
			"bufferView":37,
			"componentType":5126,
			"count":8140,
			"type":"VEC2"
		},
		{
			"bufferView":38,
			"componentType":5123,
			"count":43008,
			"type":"SCALAR"
		},
		{
			"bufferView":39,
			"componentType":5126,
			"count":8157,
			"max":[
				0.3935133218765259,
				0.09713596105575562,
				0.34774330258369446
			],
			"min":[
				-0.3936554491519928,
				-0.1120539978146553,
				-0.34789425134658813
			],
			"type":"VEC3"
		},
		{
			"bufferView":40,
			"componentType":5126,
			"count":8157,
			"type":"VEC3"
		},
		{
			"bufferView":41,
			"componentType":5126,
			"count":8157,
			"type":"VEC2"
		},
		{
			"bufferView":42,
			"componentType":5126,
			"count":8157,
			"type":"VEC2"
		},
		{
			"bufferView":43,
			"componentType":5123,
			"count":43008,
			"type":"SCALAR"
		},
		{
			"bufferView":44,
			"componentType":5126,
			"count":102,
			"max":[
				0.06051475927233696,
				0.06051475927233696,
				0.03633161261677742
			],
			"min":[
				-0.06051475927233696,
				-0.06051475927233696,
				-0.03633161261677742
			],
			"type":"VEC3"
		},
		{
			"bufferView":45,
			"componentType":5126,
			"count":102,
			"type":"VEC3"
		},
		{
			"bufferView":46,
			"componentType":5126,
			"count":102,
			"type":"VEC2"
		},
		{
			"bufferView":47,
			"componentType":5126,
			"count":102,
			"type":"VEC2"
		},
		{
			"bufferView":48,
			"componentType":5123,
			"count":240,
			"type":"SCALAR"
		},
		{
			"bufferView":49,
			"componentType":5126,
			"count":45568,
			"max":[
				0.9749563336372375,
				0.9744329452514648,
				2.5551061630249023
			],
			"min":[
				-0.9718248844146729,
				-0.9735183715820312,
				-2.5551366806030273
			],
			"type":"VEC3"
		},
		{
			"bufferView":50,
			"componentType":5126,
			"count":45568,
			"type":"VEC3"
		},
		{
			"bufferView":51,
			"componentType":5126,
			"count":45568,
			"type":"VEC2"
		},
		{
			"bufferView":52,
			"componentType":5126,
			"count":45568,
			"type":"VEC2"
		},
		{
			"bufferView":53,
			"componentType":5123,
			"count":68352,
			"type":"SCALAR"
		},
		{
			"bufferView":54,
			"componentType":5126,
			"count":45568,
			"max":[
				0.9749563336372375,
				0.9744329452514648,
				2.5551061630249023
			],
			"min":[
				-0.9718248844146729,
				-0.9735183715820312,
				-2.5551366806030273
			],
			"type":"VEC3"
		},
		{
			"bufferView":55,
			"componentType":5126,
			"count":45568,
			"type":"VEC3"
		},
		{
			"bufferView":56,
			"componentType":5126,
			"count":45568,
			"type":"VEC2"
		},
		{
			"bufferView":57,
			"componentType":5126,
			"count":45568,
			"type":"VEC2"
		}
	],
	"bufferViews":[
		{
			"buffer":0,
			"byteLength":71700,
			"byteOffset":0,
			"target":34962
		},
		{
			"buffer":0,
			"byteLength":71700,
			"byteOffset":71700,
			"target":34962
		},
		{
			"buffer":0,
			"byteLength":47800,
			"byteOffset":143400,
			"target":34962
		},
		{
			"buffer":0,
			"byteLength":47800,
			"byteOffset":191200,
			"target":34962
		},
		{
			"buffer":0,
			"byteLength":63744,
			"byteOffset":239000,
			"target":34963
		},
		{
			"buffer":0,
			"byteLength":68472,
			"byteOffset":302744,
			"target":34962
		},
		{
			"buffer":0,
			"byteLength":68472,
			"byteOffset":371216,
			"target":34962
		},
		{
			"buffer":0,
			"byteLength":45648,
			"byteOffset":439688,
			"target":34962
		},
		{
			"buffer":0,
			"byteLength":63744,
			"byteOffset":485336,
			"target":34963
		},
		{
			"buffer":0,
			"byteLength":71700,
			"byteOffset":549080,
			"target":34962
		},
		{
			"buffer":0,
			"byteLength":71700,
			"byteOffset":620780,
			"target":34962
		},
		{
			"buffer":0,
			"byteLength":47800,
			"byteOffset":692480,
			"target":34962
		},
		{
			"buffer":0,
			"byteLength":47800,
			"byteOffset":740280,
			"target":34962
		},
		{
			"buffer":0,
			"byteLength":63744,
			"byteOffset":788080,
			"target":34963
		},
		{
			"buffer":0,
			"byteLength":97188,
			"byteOffset":851824,
			"target":34962
		},
		{
			"buffer":0,
			"byteLength":97188,
			"byteOffset":949012,
			"target":34962
		},
		{
			"buffer":0,
			"byteLength":64792,
			"byteOffset":1046200,
			"target":34962
		},
		{
			"buffer":0,
			"byteLength":64792,
			"byteOffset":1110992,
			"target":34962
		},
		{
			"buffer":0,
			"byteLength":86016,
			"byteOffset":1175784,
			"target":34963
		},
		{
			"buffer":0,
			"byteLength":97560,
			"byteOffset":1261800,
			"target":34962
		},
		{
			"buffer":0,
			"byteLength":97560,
			"byteOffset":1359360,
			"target":34962
		},
		{
			"buffer":0,
			"byteLength":65040,
			"byteOffset":1456920,
			"target":34962
		},
		{
			"buffer":0,
			"byteLength":65040,
			"byteOffset":1521960,
			"target":34962
		},
		{
			"buffer":0,
			"byteLength":86016,
			"byteOffset":1587000,
			"target":34963
		},
		{
			"buffer":0,
			"byteLength":98244,
			"byteOffset":1673016,
			"target":34962
		},
		{
			"buffer":0,
			"byteLength":98244,
			"byteOffset":1771260,
			"target":34962
		},
		{
			"buffer":0,
			"byteLength":65496,
			"byteOffset":1869504,
			"target":34962
		},
		{
			"buffer":0,
			"byteLength":65496,
			"byteOffset":1935000,
			"target":34962
		},
		{
			"buffer":0,
			"byteLength":86016,
			"byteOffset":2000496,
			"target":34963
		},
		{
			"buffer":0,
			"byteLength":96600,
			"byteOffset":2086512,
			"target":34962
		},
		{
			"buffer":0,
			"byteLength":96600,
			"byteOffset":2183112,
			"target":34962
		},
		{
			"buffer":0,
			"byteLength":64400,
			"byteOffset":2279712,
			"target":34962
		},
		{
			"buffer":0,
			"byteLength":64400,
			"byteOffset":2344112,
			"target":34962
		},
		{
			"buffer":0,
			"byteLength":86016,
			"byteOffset":2408512,
			"target":34963
		},
		{
			"buffer":0,
			"byteLength":97680,
			"byteOffset":2494528,
			"target":34962
		},
		{
			"buffer":0,
			"byteLength":97680,
			"byteOffset":2592208,
			"target":34962
		},
		{
			"buffer":0,
			"byteLength":65120,
			"byteOffset":2689888,
			"target":34962
		},
		{
			"buffer":0,
			"byteLength":65120,
			"byteOffset":2755008,
			"target":34962
		},
		{
			"buffer":0,
			"byteLength":86016,
			"byteOffset":2820128,
			"target":34963
		},
		{
			"buffer":0,
			"byteLength":97884,
			"byteOffset":2906144,
			"target":34962
		},
		{
			"buffer":0,
			"byteLength":97884,
			"byteOffset":3004028,
			"target":34962
		},
		{
			"buffer":0,
			"byteLength":65256,
			"byteOffset":3101912,
			"target":34962
		},
		{
			"buffer":0,
			"byteLength":65256,
			"byteOffset":3167168,
			"target":34962
		},
		{
			"buffer":0,
			"byteLength":86016,
			"byteOffset":3232424,
			"target":34963
		},
		{
			"buffer":0,
			"byteLength":1224,
			"byteOffset":3318440,
			"target":34962
		},
		{
			"buffer":0,
			"byteLength":1224,
			"byteOffset":3319664,
			"target":34962
		},
		{
			"buffer":0,
			"byteLength":816,
			"byteOffset":3320888,
			"target":34962
		},
		{
			"buffer":0,
			"byteLength":816,
			"byteOffset":3321704,
			"target":34962
		},
		{
			"buffer":0,
			"byteLength":480,
			"byteOffset":3322520,
			"target":34963
		},
		{
			"buffer":0,
			"byteLength":546816,
			"byteOffset":3323000,
			"target":34962
		},
		{
			"buffer":0,
			"byteLength":546816,
			"byteOffset":3869816,
			"target":34962
		},
		{
			"buffer":0,
			"byteLength":364544,
			"byteOffset":4416632,
			"target":34962
		},
		{
			"buffer":0,
			"byteLength":364544,
			"byteOffset":4781176,
			"target":34962
		},
		{
			"buffer":0,
			"byteLength":136704,
			"byteOffset":5145720,
			"target":34963
		},
		{
			"buffer":0,
			"byteLength":546816,
			"byteOffset":5282424,
			"target":34962
		},
		{
			"buffer":0,
			"byteLength":546816,
			"byteOffset":5829240,
			"target":34962
		},
		{
			"buffer":0,
			"byteLength":364544,
			"byteOffset":6376056,
			"target":34962
		},
		{
			"buffer":0,
			"byteLength":364544,
			"byteOffset":6740600,
			"target":34962
		}
	],
	"samplers":[
		{
			"magFilter":9729,
			"minFilter":9987
		}
	],
	"buffers":[
		{
			"byteLength":7105144,
			"uri":"Canap%C3%A9.bin"
		}
	]
}
